<svg 
 xmlns="http://www.w3.org/2000/svg"
 xmlns:xlink="http://www.w3.org/1999/xlink"
 width="13px" height="13px">
<path fill-rule="evenodd"  opacity="0.502" fill="rgb(255, 255, 255)"
 d="M12.676,11.237 L9.781,8.373 C10.499,7.507 10.931,6.399 10.931,5.190 C10.931,2.418 8.658,0.169 5.856,0.169 C3.52,0.169 0.781,2.418 0.781,5.190 C0.781,7.962 3.52,10.211 5.856,10.211 C7.78,10.211 8.196,9.786 9.71,9.76 L11.966,11.937 C12.163,12.132 12.480,12.132 12.676,11.937 C12.873,11.745 12.873,11.429 12.676,11.237 ZM5.856,9.212 C3.613,9.212 1.789,7.408 1.789,5.190 C1.789,2.973 3.613,1.166 5.856,1.166 C8.98,1.166 9.924,2.973 9.924,5.190 C9.924,7.408 8.98,9.212 5.856,9.212 Z"/>
</svg>