<svg 
 xmlns="http://www.w3.org/2000/svg"
 xmlns:xlink="http://www.w3.org/1999/xlink"
 width="16px" height="12px">
<path fill-rule="evenodd"  opacity="0.502" fill="rgb(255, 255, 255)"
 d="M15.42,0.951 C14.789,0.704 14.485,0.580 14.130,0.580 L2.252,0.580 C1.897,0.580 1.593,0.704 1.340,0.951 C1.87,1.198 0.961,1.495 0.961,1.842 L0.961,10.419 C0.961,10.766 1.87,11.63 1.340,11.309 C1.593,11.557 1.897,11.680 2.252,11.680 L14.130,11.680 C14.485,11.680 14.789,11.557 15.42,11.309 C15.295,11.63 15.421,10.766 15.421,10.419 L15.421,1.842 C15.421,1.495 15.295,1.198 15.42,0.951 ZM14.388,10.418 C14.388,10.487 14.362,10.546 14.311,10.596 C14.260,10.646 14.200,10.671 14.130,10.671 L2.252,10.671 C2.182,10.671 2.121,10.646 2.70,10.596 C2.19,10.546 1.994,10.487 1.994,10.418 L1.994,4.365 C2.166,4.554 2.351,4.727 2.550,4.885 C3.992,5.967 5.138,6.855 5.988,7.549 C6.262,7.775 6.486,7.951 6.658,8.77 C6.830,8.204 7.62,8.331 7.356,8.460 C7.649,8.588 7.925,8.653 8.183,8.653 L8.191,8.653 L8.199,8.653 C8.457,8.653 8.733,8.588 9.26,8.460 C9.319,8.331 9.552,8.204 9.724,8.77 C9.896,7.951 10.120,7.775 10.394,7.549 C11.244,6.855 12.390,5.967 13.831,4.885 C14.31,4.727 14.216,4.554 14.388,4.365 L14.388,10.418 L14.388,10.418 ZM14.388,2.47 L14.388,2.133 C14.388,2.443 14.263,2.789 14.13,3.170 C13.763,3.551 13.492,3.855 13.202,4.81 C12.164,4.879 11.85,5.712 9.966,6.579 C9.934,6.606 9.840,6.683 9.684,6.812 C9.528,6.941 9.404,7.39 9.312,7.108 C9.221,7.176 9.101,7.259 8.953,7.356 C8.805,7.453 8.670,7.525 8.546,7.573 C8.422,7.620 8.306,7.644 8.199,7.644 L8.191,7.644 L8.183,7.644 C8.75,7.644 7.960,7.620 7.836,7.573 C7.712,7.525 7.576,7.453 7.428,7.356 C7.280,7.259 7.161,7.176 7.69,7.108 C6.978,7.39 6.854,6.941 6.698,6.812 C6.542,6.683 6.448,6.606 6.416,6.579 C5.297,5.712 4.218,4.879 3.180,4.81 C2.389,3.471 1.994,2.724 1.994,1.842 C1.994,1.773 2.19,1.714 2.70,1.665 C2.121,1.614 2.182,1.589 2.252,1.589 L14.130,1.589 C14.173,1.613 14.211,1.620 14.243,1.609 C14.275,1.598 14.299,1.618 14.315,1.668 C14.332,1.718 14.346,1.742 14.360,1.739 C14.373,1.736 14.382,1.769 14.384,1.838 C14.387,1.906 14.388,1.941 14.388,1.941 L14.388,2.47 L14.388,2.47 Z"/>
</svg>