<svg 
 xmlns="http://www.w3.org/2000/svg"
 xmlns:xlink="http://www.w3.org/1999/xlink"
 width="12px" height="13px">
<path fill-rule="evenodd"  opacity="0.502" fill="rgb(255, 255, 255)"
 d="M9.983,8.597 C9.525,8.597 9.116,8.775 8.804,9.56 L4.507,6.574 C4.538,6.436 4.562,6.297 4.562,6.154 C4.562,6.11 4.538,5.873 4.507,5.735 L8.755,3.275 C9.79,3.573 9.508,3.760 9.983,3.760 C10.984,3.760 11.791,2.960 11.791,1.964 C11.791,0.971 10.984,0.169 9.983,0.169 C8.983,0.169 8.176,0.971 8.176,1.964 C8.176,2.109 8.200,2.245 8.231,2.383 L3.983,4.845 C3.658,4.545 3.230,4.359 2.755,4.359 C1.753,4.359 0.946,5.161 0.946,6.154 C0.946,7.147 1.753,7.949 2.755,7.949 C3.230,7.949 3.658,7.763 3.982,7.465 L8.271,9.953 C8.242,10.80 8.223,10.212 8.223,10.344 C8.223,11.308 9.14,12.91 9.982,12.91 C10.952,12.91 11.743,11.308 11.743,10.344 C11.743,9.380 10.952,8.597 9.983,8.597 Z"/>
</svg>