<svg 
 xmlns="http://www.w3.org/2000/svg"
 xmlns:xlink="http://www.w3.org/1999/xlink"
 width="15px" height="13px">
<path fill-rule="evenodd"  opacity="0.502" fill="rgb(255, 255, 255)"
 d="M13.985,1.126 C13.321,0.484 12.403,0.162 11.231,0.162 C10.907,0.162 10.576,0.218 10.239,0.329 C9.901,0.441 9.587,0.591 9.297,0.780 C9.7,0.969 8.757,1.147 8.548,1.313 C8.339,1.478 8.140,1.654 7.952,1.841 C7.764,1.654 7.565,1.478 7.356,1.313 C7.146,1.147 6.897,0.969 6.607,0.780 C6.316,0.591 6.2,0.441 5.665,0.329 C5.328,0.218 4.997,0.162 4.673,0.162 C3.501,0.162 2.583,0.484 1.919,1.126 C1.255,1.768 0.923,2.659 0.923,3.799 C0.923,4.146 0.984,4.504 1.107,4.872 C1.230,5.239 1.370,5.552 1.527,5.812 C1.684,6.70 1.862,6.323 2.60,6.569 C2.259,6.815 2.404,6.985 2.496,7.78 C2.587,7.172 2.659,7.239 2.711,7.280 L7.607,11.958 C7.701,12.51 7.816,12.98 7.952,12.98 C8.88,12.98 8.203,12.51 8.297,11.958 L13.185,7.296 C14.383,6.110 14.981,4.944 14.981,3.799 C14.981,2.659 14.649,1.768 13.985,1.126 ZM12.502,6.566 L7.952,10.909 L3.394,6.557 C2.416,5.589 1.927,4.669 1.927,3.799 C1.927,3.379 1.983,3.9 2.96,2.688 C2.208,2.367 2.352,2.112 2.527,1.923 C2.702,1.733 2.915,1.579 3.166,1.460 C3.418,1.341 3.663,1.260 3.904,1.219 C4.145,1.178 4.401,1.157 4.673,1.157 C4.945,1.157 5.238,1.223 5.551,1.355 C5.865,1.488 6.154,1.653 6.418,1.852 C6.682,2.52 6.909,2.238 7.97,2.412 C7.285,2.586 7.442,2.745 7.568,2.890 C7.662,3.4 7.790,3.61 7.952,3.61 C8.114,3.61 8.242,3.4 8.336,2.890 C8.462,2.745 8.619,2.586 8.807,2.412 C8.995,2.238 9.222,2.52 9.486,1.852 C9.750,1.653 10.39,1.488 10.353,1.355 C10.666,1.223 10.959,1.157 11.231,1.157 C11.503,1.157 11.759,1.178 12.0,1.219 C12.241,1.260 12.486,1.341 12.738,1.460 C12.989,1.579 13.202,1.734 13.377,1.923 C13.552,2.112 13.696,2.367 13.809,2.688 C13.921,3.9 13.977,3.379 13.977,3.799 C13.977,4.669 13.486,5.591 12.502,6.566 Z"/>
</svg>