<svg 
 xmlns="http://www.w3.org/2000/svg"
 xmlns:xlink="http://www.w3.org/1999/xlink"
 width="36px" height="36px">
<path fill-rule="evenodd"  fill="rgb(202, 162, 92)"
 d="M35.155,24.785 C35.155,30.673 30.365,35.463 24.477,35.463 C21.303,35.463 18.457,34.64 16.499,31.858 C14.804,34.127 12.167,35.463 9.303,35.463 C4.345,35.463 0.311,31.429 0.311,26.471 C0.311,21.512 4.345,17.478 9.303,17.478 C11.26,17.478 12.672,17.968 14.93,18.867 L11.832,16.324 C11.729,16.340 11.624,16.354 11.517,16.354 L11.92,16.354 C10.504,16.354 9.948,16.98 9.568,15.650 L1.32,5.606 C0.567,5.60 0.311,4.363 0.311,3.646 C0.311,1.976 1.669,0.618 3.338,0.618 L3.666,0.618 C4.557,0.618 5.397,1.7 5.973,1.685 L14.447,11.654 C14.754,12.14 14.923,12.475 14.923,12.949 C14.923,13.66 14.909,13.180 14.890,13.293 L17.747,16.508 C18.908,15.563 20.240,14.874 21.667,14.485 L21.667,12.982 C21.47,12.982 20.543,12.478 20.543,11.858 L20.543,10.734 C20.543,10.115 21.47,9.610 21.667,9.610 L27.287,9.610 C27.907,9.610 28.411,10.115 28.411,10.734 L28.411,11.858 C28.411,12.478 27.907,12.982 27.287,12.982 L27.287,14.494 C31.814,15.733 35.155,19.870 35.155,24.785 ZM9.303,18.602 C4.964,18.602 1.435,22.132 1.435,26.471 C1.435,30.810 4.964,34.339 9.303,34.339 C11.908,34.339 14.298,33.76 15.771,30.946 C15.532,30.609 15.306,30.262 15.107,29.898 C13.908,31.920 11.706,33.215 9.303,33.215 C5.584,33.215 2.559,30.190 2.559,26.471 C2.559,22.752 5.584,19.727 9.303,19.727 C11.174,19.727 12.946,20.512 14.212,21.857 C14.325,21.458 14.460,21.66 14.619,20.683 C13.164,19.343 11.292,18.602 9.303,18.602 ZM13.917,23.227 L13.901,23.239 C12.848,21.743 11.129,20.851 9.303,20.851 C6.204,20.851 3.683,23.372 3.683,26.471 C3.683,29.570 6.204,32.91 9.303,32.91 C11.587,32.91 13.654,30.687 14.509,28.581 C14.57,27.400 13.799,26.124 13.799,24.785 C13.799,24.262 13.842,23.741 13.917,23.227 ZM5.117,2.413 C4.755,1.987 4.226,1.742 3.666,1.742 L3.338,1.742 C2.289,1.742 1.435,2.596 1.435,3.646 C1.435,4.97 1.596,4.535 1.888,4.879 L2.751,5.895 L5.832,3.254 L5.117,2.413 ZM8.100,5.922 L5.735,7.949 L5.3,7.97 L7.372,5.66 L6.560,4.111 L3.479,6.752 L5.831,9.518 L8.912,6.877 L8.100,5.922 ZM9.639,7.734 L6.558,10.375 L7.370,11.330 L10.451,8.689 L9.639,7.734 ZM13.590,12.381 L11.179,9.544 L8.98,12.185 L10.424,14.922 C10.591,15.118 10.834,15.231 11.92,15.231 L11.517,15.231 C11.751,15.231 11.971,15.139 12.136,14.974 L13.542,13.568 C13.708,13.403 13.799,13.183 13.799,12.949 C13.799,12.741 13.725,12.540 13.590,12.381 ZM14.337,14.364 L12.932,15.769 C12.916,15.784 12.897,15.795 12.880,15.811 L15.891,19.197 C16.318,18.656 16.866,18.217 17.495,17.918 L14.337,14.364 ZM16.47,21.975 C16.47,23.834 17.559,25.347 19.419,25.347 C21.278,25.347 22.791,23.834 22.791,21.975 C22.791,20.115 21.278,18.602 19.419,18.602 C17.559,18.602 16.47,20.115 16.47,21.975 ZM21.313,26.47 C21.753,26.319 22.264,26.471 22.791,26.471 C24.340,26.471 25.601,25.210 25.601,23.661 C25.601,22.475 24.860,21.463 23.819,21.52 C23.881,21.350 23.915,21.658 23.915,21.975 C23.915,23.776 22.847,25.330 21.313,26.47 ZM23.332,19.768 C25.245,20.34 26.725,21.676 26.725,23.661 C26.725,25.830 24.960,27.595 22.791,27.595 C21.742,27.595 20.739,27.169 20.3,26.429 C19.811,26.453 19.617,26.471 19.419,26.471 C18.640,26.471 17.908,26.271 17.269,25.922 C17.817,29.411 20.836,32.91 24.477,32.91 C28.505,32.91 31.783,28.813 31.783,24.785 C31.783,20.756 28.505,17.478 24.477,17.478 C23.490,17.478 22.519,17.678 21.621,18.59 C22.336,18.462 22.928,19.55 23.332,19.768 ZM22.791,10.734 L21.667,10.734 L21.667,11.858 L22.791,11.858 L22.791,10.734 ZM25.39,10.734 L23.915,10.734 L23.915,11.858 L25.39,11.858 L25.39,10.734 ZM22.791,12.982 L22.791,14.249 C23.346,14.160 23.908,14.107 24.477,14.107 C25.52,14.107 25.612,14.165 26.163,14.253 L26.163,12.982 L22.791,12.982 ZM27.287,11.858 L27.287,10.734 L26.163,10.734 L26.163,11.858 L27.287,11.858 ZM24.477,15.231 C22.290,15.231 20.188,15.984 18.494,17.348 L18.670,17.546 C18.914,17.505 19.163,17.478 19.419,17.478 C19.671,17.478 19.917,17.504 20.158,17.545 C21.460,16.767 22.952,16.354 24.477,16.354 C29.125,16.354 32.907,20.136 32.907,24.785 C32.907,29.433 29.125,33.215 24.477,33.215 C19.884,33.215 16.143,29.520 16.55,24.948 C15.595,24.428 15.255,23.803 15.74,23.111 C14.976,23.662 14.923,24.222 14.923,24.785 C14.923,30.53 19.209,34.339 24.477,34.339 C29.745,34.339 34.31,30.53 34.31,24.785 C34.31,19.516 29.745,15.231 24.477,15.231 ZM28.973,25.347 C29.903,25.347 30.659,26.103 30.659,27.33 C30.659,27.962 29.903,28.719 28.973,28.719 C28.973,29.648 28.217,30.405 27.287,30.405 C26.357,30.405 25.601,29.648 25.601,28.719 C25.601,27.789 26.357,27.33 27.287,27.33 C27.287,26.103 28.43,25.347 28.973,25.347 ZM28.973,27.595 C29.283,27.595 29.535,27.342 29.535,27.33 C29.535,26.723 29.283,26.471 28.973,26.471 C28.663,26.471 28.411,26.723 28.411,27.33 C28.411,27.342 28.663,27.595 28.973,27.595 ZM26.725,28.719 C26.725,29.29 26.977,29.281 27.287,29.281 C27.597,29.281 27.849,29.29 27.849,28.719 C27.849,28.409 27.597,28.157 27.287,28.157 C26.977,28.157 26.725,28.409 26.725,28.719 ZM21.667,21.975 C21.667,23.214 20.659,24.223 19.419,24.223 C18.179,24.223 17.171,23.214 17.171,21.975 C17.171,20.735 18.179,19.727 19.419,19.727 C20.659,19.727 21.667,20.735 21.667,21.975 ZM18.295,21.975 C18.295,22.594 18.799,23.99 19.419,23.99 C20.39,23.99 20.543,22.594 20.543,21.975 C20.543,21.355 20.39,20.851 19.419,20.851 C18.799,20.851 18.295,21.355 18.295,21.975 Z"/>
</svg>