<svg 
 xmlns="http://www.w3.org/2000/svg"
 xmlns:xlink="http://www.w3.org/1999/xlink"
 width="36px" height="36px">
<path fill-rule="evenodd"  fill="rgb(202, 162, 92)"
 d="M35.111,20.672 L35.111,26.292 L32.430,26.292 C32.254,26.865 32.25,27.419 31.746,27.946 L33.640,29.840 L29.666,33.814 L27.772,31.920 C27.245,32.199 26.692,32.428 26.118,32.604 L26.118,35.284 L20.498,35.284 L20.498,32.604 C19.926,32.428 19.372,32.199 18.844,31.920 L16.951,33.814 L12.976,29.840 L14.870,27.946 C14.592,27.419 14.362,26.865 14.187,26.292 L11.506,26.292 L11.506,24.15 C5.261,23.719 0.266,18.560 0.266,12.241 C0.266,5.733 5.561,0.439 12.68,0.439 C15.919,0.439 19.335,2.301 21.491,5.164 C21.902,5.59 22.322,4.991 22.746,4.959 L22.746,3.811 L23.871,3.811 L23.871,4.964 C24.461,5.9 25.32,5.122 25.575,5.298 L26.15,4.236 L27.54,4.667 L26.612,5.732 C27.132,5.997 27.616,6.321 28.56,6.697 L28.872,5.881 L29.666,6.676 L28.850,7.492 C29.227,7.932 29.551,8.416 29.816,8.936 L30.882,8.495 L31.312,9.533 L30.250,9.973 C30.428,10.517 30.540,11.88 30.586,11.679 L31.739,11.679 L31.739,12.803 L30.579,12.803 C30.550,13.173 30.499,13.539 30.416,13.899 L33.640,17.123 L31.746,19.18 C32.25,19.545 32.255,20.98 32.430,20.672 L35.111,20.672 ZM12.68,1.563 C6.180,1.563 1.390,6.353 1.390,12.241 C1.390,18.130 6.180,22.920 12.68,22.920 C17.956,22.920 22.746,18.130 22.746,12.241 C22.746,6.353 17.956,1.563 12.68,1.563 ZM18.250,23.482 C18.250,26.270 20.519,28.540 23.308,28.540 C26.98,28.540 28.367,26.270 28.367,23.482 C28.367,20.693 26.98,18.423 23.308,18.423 C22.859,18.423 22.419,18.491 21.991,18.607 C21.73,20.33 19.859,21.246 18.434,22.164 C18.318,22.592 18.250,23.32 18.250,23.482 ZM23.308,6.59 C22.923,6.59 22.542,6.97 22.169,6.167 C23.150,7.793 23.747,9.669 23.842,11.679 L26.119,11.679 L26.119,14.359 C26.692,14.535 27.246,14.764 27.773,15.44 L29.359,13.457 C29.438,13.58 29.490,12.653 29.490,12.241 C29.490,8.832 26.717,6.59 23.308,6.59 ZM32.51,17.123 L29.666,14.738 L27.958,16.447 L27.583,16.225 C26.909,15.827 26.180,15.525 25.416,15.328 L24.994,15.219 L24.994,12.803 L23.842,12.803 C23.765,14.419 23.365,15.949 22.699,17.333 C22.902,17.313 23.104,17.299 23.308,17.299 C26.717,17.299 29.490,20.73 29.490,23.482 C29.490,26.890 26.717,29.664 23.308,29.664 C19.900,29.664 17.126,26.890 17.126,23.482 C17.126,23.277 17.140,23.74 17.160,22.872 C15.776,23.538 14.247,23.939 12.630,24.15 L12.630,25.168 L15.46,25.168 L15.155,25.590 C15.353,26.354 15.654,27.83 16.52,27.757 L16.274,28.132 L14.566,29.840 L16.951,32.225 L18.658,30.516 L19.34,30.738 C19.708,31.136 20.437,31.438 21.201,31.635 L21.622,31.744 L21.622,34.160 L24.994,34.160 L24.994,31.744 L25.417,31.635 C26.180,31.438 26.909,31.136 27.584,30.738 L27.959,30.516 L29.667,32.224 L32.52,29.840 L30.343,28.132 L30.564,27.757 C30.962,27.82 31.264,26.354 31.461,25.589 L31.571,25.168 L33.987,25.168 L33.987,21.796 L31.571,21.796 L31.461,21.373 C31.264,20.609 30.962,19.880 30.564,19.206 L30.343,18.831 L32.51,17.123 ZM12.68,21.796 C6.800,21.796 2.514,17.510 2.514,12.241 C2.514,6.973 6.800,2.687 12.68,2.687 C17.337,2.687 21.622,6.973 21.622,12.241 C21.622,17.510 17.337,21.796 12.68,21.796 ZM19.69,16.932 C19.277,16.622 19.458,16.292 19.625,15.955 L16.212,13.985 C16.65,14.334 15.871,14.657 15.644,14.955 L19.69,16.932 ZM13.754,20.502 C15.575,20.130 17.177,19.165 18.367,17.825 L14.829,15.782 C14.503,16.37 14.143,16.249 13.754,16.407 L13.754,20.502 ZM15.440,12.241 C15.440,10.382 13.928,8.869 12.68,8.869 C10.209,8.869 8.696,10.382 8.696,12.241 C8.696,14.101 10.209,15.613 12.68,15.613 C13.928,15.613 15.440,14.101 15.440,12.241 ZM11.506,20.643 C11.693,20.655 11.878,20.672 12.68,20.672 C12.258,20.672 12.444,20.655 12.630,20.644 L12.630,16.699 C12.446,16.722 12.259,16.738 12.68,16.738 C11.878,16.738 11.691,16.722 11.506,16.698 L11.506,20.643 ZM10.382,20.502 L10.382,16.407 C9.993,16.249 9.633,16.37 9.307,15.782 L5.769,17.825 C6.959,19.165 8.561,20.130 10.382,20.502 ZM5.68,16.932 L8.492,14.955 C8.266,14.657 8.72,14.334 7.925,13.985 L4.512,15.955 C4.679,16.293 4.859,16.622 5.68,16.932 ZM3.638,12.241 C3.638,13.174 3.797,14.69 4.78,14.908 L7.621,12.863 C7.592,12.659 7.572,12.453 7.572,12.241 C7.572,12.30 7.592,11.824 7.621,11.620 L4.78,9.575 C3.797,10.414 3.638,11.309 3.638,12.241 ZM5.68,7.551 C4.859,7.861 4.679,8.190 4.512,8.527 L7.925,10.498 C8.72,10.149 8.266,9.825 8.492,9.528 L5.68,7.551 ZM10.382,3.981 C8.561,4.352 6.959,5.317 5.769,6.658 L9.307,8.701 C9.633,8.445 9.993,8.234 10.382,8.76 L10.382,3.981 ZM12.630,3.840 C12.444,3.828 12.258,3.811 12.68,3.811 C11.878,3.811 11.693,3.828 11.506,3.840 L11.506,7.784 C11.691,7.761 11.878,7.745 12.68,7.745 C12.259,7.745 12.446,7.761 12.630,7.785 L12.630,3.840 ZM13.754,3.981 L13.754,8.76 C14.143,8.234 14.503,8.446 14.829,8.701 L18.367,6.658 C17.177,5.317 15.575,4.352 13.754,3.981 ZM19.69,7.551 L15.644,9.528 C15.871,9.826 16.65,10.149 16.212,10.498 L19.625,8.527 C19.458,8.189 19.277,7.861 19.69,7.551 ZM16.516,11.620 C16.545,11.824 16.564,12.30 16.564,12.241 C16.564,12.453 16.545,12.659 16.517,12.863 L20.59,14.908 C20.340,14.69 20.498,13.174 20.498,12.241 C20.498,11.309 20.340,10.414 20.59,9.575 L16.516,11.620 ZM12.68,14.489 C10.828,14.489 9.820,13.481 9.820,12.241 C9.820,11.2 10.828,9.993 12.68,9.993 C13.308,9.993 14.316,11.2 14.316,12.241 C14.316,13.481 13.308,14.489 12.68,14.489 ZM12.68,11.117 C11.448,11.117 10.944,11.622 10.944,12.241 C10.944,12.861 11.448,13.365 12.68,13.365 C12.688,13.365 13.192,12.861 13.192,12.241 C13.192,11.622 12.688,11.117 12.68,11.117 Z"/>
</svg>