<svg 
 xmlns="http://www.w3.org/2000/svg"
 xmlns:xlink="http://www.w3.org/1999/xlink"
 width="36px" height="36px">
<path fill-rule="evenodd"  fill="rgb(202, 162, 92)"
 d="M35.111,24.427 L35.111,32.295 C35.111,33.844 33.850,35.105 32.301,35.105 L23.308,35.105 C21.759,35.105 20.498,33.844 20.498,32.295 L20.498,24.427 C20.498,23.69 21.466,21.934 22.746,21.673 L22.746,19.368 C22.127,19.368 21.622,18.864 21.622,18.244 L21.622,15.996 C21.622,15.376 22.127,14.872 22.746,14.872 L22.746,4.756 L21.622,4.756 C21.3,4.756 20.498,4.252 20.498,3.632 L20.498,2.508 C20.498,1.888 21.3,1.384 21.622,1.384 L22.850,1.384 C23.83,0.731 23.701,0.260 24.432,0.260 L31.177,0.260 C31.908,0.260 32.527,0.731 32.759,1.384 L33.987,1.384 C34.606,1.384 35.111,1.888 35.111,2.508 L35.111,3.632 C35.111,4.252 34.606,4.756 33.987,4.756 L32.863,4.756 L32.863,14.872 C33.482,14.872 33.987,15.376 33.987,15.996 L33.987,18.244 C33.987,18.864 33.482,19.368 32.863,19.368 L32.863,21.673 C34.143,21.934 35.111,23.70 35.111,24.427 ZM22.746,2.508 L21.622,2.508 L21.622,3.632 L22.746,3.632 L22.746,2.508 ZM31.739,1.946 C31.739,1.636 31.486,1.384 31.177,1.384 L24.432,1.384 C24.123,1.384 23.871,1.636 23.871,1.946 L23.871,14.872 L31.739,14.872 L31.739,1.946 ZM33.987,3.632 L33.987,2.508 L32.863,2.508 L32.863,3.632 L33.987,3.632 ZM32.863,15.996 L22.746,15.996 L22.746,18.244 L29.490,18.244 L29.490,19.368 L23.871,19.368 L23.871,24.427 L23.871,26.113 L26.222,26.113 C26.455,25.460 27.73,24.989 27.804,24.989 C28.536,24.989 29.154,25.460 29.387,26.113 L31.739,26.113 L31.739,24.427 L31.739,19.368 L30.615,19.368 L30.615,18.244 L32.863,18.244 L32.863,15.996 ZM23.871,27.237 L23.871,31.733 L26.118,31.733 L26.118,27.237 L23.871,27.237 ZM27.243,26.675 L27.243,31.733 L28.367,31.733 L28.367,26.675 C28.367,26.365 28.114,26.113 27.804,26.113 C27.495,26.113 27.243,26.365 27.243,26.675 ZM29.490,27.237 L29.490,31.733 L31.739,31.733 L31.739,27.237 L29.490,27.237 ZM31.739,32.857 L23.871,32.857 C23.251,32.857 22.746,32.353 22.746,31.733 L22.746,27.237 L22.746,24.427 L22.746,22.844 C22.94,23.77 21.622,23.695 21.622,24.427 L21.622,32.295 C21.622,33.224 22.379,33.981 23.308,33.981 L32.301,33.981 C33.230,33.981 33.987,33.224 33.987,32.295 L33.987,24.427 C33.987,23.695 33.515,23.77 32.863,22.844 L32.863,24.427 L32.863,27.237 L32.863,31.733 C32.863,32.353 32.358,32.857 31.739,32.857 ZM13.754,4.756 L12.630,4.756 L12.630,32.295 C12.630,33.844 11.370,35.105 9.820,35.105 L5.324,35.105 C3.775,35.105 2.514,33.844 2.514,32.295 L2.514,4.756 L1.390,4.756 C0.770,4.756 0.266,4.252 0.266,3.632 L0.266,1.384 C0.266,0.764 0.770,0.260 1.390,0.260 L13.754,0.260 C14.374,0.260 14.878,0.764 14.878,1.384 L14.878,3.632 C14.878,4.252 14.374,4.756 13.754,4.756 ZM13.754,1.384 L1.390,1.384 L1.390,3.632 L9.258,3.632 L9.258,4.756 L3.638,4.756 L3.638,32.295 C3.638,33.224 4.395,33.981 5.324,33.981 L9.820,33.981 C10.750,33.981 11.506,33.224 11.506,32.295 L11.506,4.756 L10.382,4.756 L10.382,3.632 L13.754,3.632 L13.754,1.384 ZM5.886,30.609 L9.258,30.609 L9.258,31.733 L5.886,31.733 L5.886,30.609 ZM5.886,27.237 L9.258,27.237 L9.258,28.361 L5.886,28.361 L5.886,27.237 ZM5.886,23.865 L9.258,23.865 L9.258,24.989 L5.886,24.989 L5.886,23.865 ZM5.886,20.492 L9.258,20.492 L9.258,21.617 L5.886,21.617 L5.886,20.492 ZM5.886,17.120 L9.258,17.120 L9.258,18.244 L5.886,18.244 L5.886,17.120 Z"/>
</svg>