<svg 
 xmlns="http://www.w3.org/2000/svg"
 xmlns:xlink="http://www.w3.org/1999/xlink"
 width="36px" height="36px">
<path fill-rule="evenodd"  fill="rgb(202, 162, 92)"
 d="M31.346,15.935 L28.676,15.745 C26.820,10.406 22.87,6.676 16.564,6.37 L16.564,4.805 L19.936,4.805 L19.936,0.308 L9.820,0.308 L9.820,4.805 L13.192,4.805 L13.192,6.28 C5.927,6.868 0.266,13.54 0.266,20.541 C0.266,28.598 6.821,35.153 14.878,35.153 C21.570,35.153 27.362,30.650 29.23,24.188 L31.345,24.22 C33.457,23.872 35.111,22.96 35.111,19.979 C35.111,17.861 33.457,16.86 31.346,15.935 ZM12.68,3.680 L10.944,3.680 L10.944,1.432 L12.68,1.432 L12.68,3.680 ZM17.688,1.432 L18.812,1.432 L18.812,3.680 L17.688,3.680 L17.688,1.432 ZM15.440,1.432 L16.564,1.432 L16.564,3.680 L15.440,3.680 L15.440,1.432 ZM13.192,1.432 L14.316,1.432 L14.316,3.680 L13.192,3.680 L13.192,1.432 ZM15.440,4.805 L15.440,5.951 C15.253,5.943 15.67,5.929 14.878,5.929 C14.690,5.929 14.503,5.936 14.316,5.942 L14.316,4.805 L15.440,4.805 ZM14.878,34.29 C7.441,34.29 1.390,27.978 1.390,20.541 C1.390,13.104 7.441,7.52 14.878,7.52 C20.465,7.52 25.432,10.488 27.439,15.656 L24.893,15.474 C22.986,11.714 19.100,9.300 14.878,9.300 C8.681,9.300 3.638,14.343 3.638,20.541 C3.638,26.739 8.681,31.781 14.878,31.781 C18.506,31.781 21.929,30.12 24.36,27.49 L23.119,26.397 C21.223,29.65 18.143,30.657 14.878,30.657 C9.300,30.657 4.762,26.119 4.762,20.541 C4.762,14.963 9.300,10.424 14.878,10.424 C18.446,10.424 21.748,12.342 23.559,15.378 L19.98,15.60 C17.939,14.977 16.698,14.673 15.190,14.104 C13.664,13.528 11.873,13.799 10.586,14.799 L6.448,18.18 L6.448,21.940 L10.586,25.160 C11.418,25.805 12.455,26.161 13.508,26.161 C14.84,26.161 14.650,26.57 15.190,25.854 C16.698,25.284 17.939,24.980 19.98,24.898 L24.165,24.536 C24.49,24.806 23.920,25.72 23.781,25.332 L24.771,25.865 C25.16,25.408 25.222,24.931 25.401,24.447 L27.828,24.274 C26.173,30.41 20.927,34.29 14.878,34.29 ZM31.265,22.901 L19.19,23.776 C17.747,23.867 16.405,24.193 14.793,24.802 C13.628,25.243 12.258,25.35 11.276,24.271 L7.572,21.390 L7.572,21.371 L10.184,22.416 C11.757,23.44 13.596,22.935 15.234,22.115 C15.844,21.809 16.499,21.626 17.186,21.570 L28.417,20.543 L28.417,20.541 L33.789,21.33 C33.389,22.61 32.422,22.819 31.265,22.901 ZM7.118,19.979 L10.601,18.585 C11.894,18.68 13.360,18.161 14.731,18.848 C15.470,19.218 16.264,19.440 17.84,19.507 L22.254,19.979 L17.90,20.451 C16.264,20.518 15.471,20.740 14.731,21.110 C13.362,21.796 11.896,21.889 10.602,21.372 L7.118,19.979 ZM17.181,18.387 C16.500,18.331 15.845,18.148 15.235,17.843 C14.300,17.375 13.300,17.138 12.320,17.138 C11.583,17.138 10.859,17.272 10.184,17.542 L7.572,18.587 L11.277,15.686 C12.259,14.922 13.629,14.714 14.793,15.155 C16.405,15.764 17.748,16.91 19.19,16.181 L31.265,17.56 C32.773,17.163 33.957,18.417 33.986,19.922 L17.181,18.387 Z"/>
</svg>