<svg 
 xmlns="http://www.w3.org/2000/svg"
 xmlns:xlink="http://www.w3.org/1999/xlink"
 width="32px" height="36px">
<path fill-rule="evenodd"  fill="rgb(202, 162, 92)"
 d="M29.477,21.617 L27.203,21.617 C26.818,22.874 26.254,24.54 25.541,25.127 L25.541,27.118 C25.541,29.881 24.731,32.556 23.197,34.855 L23.30,35.105 L21.42,35.105 L21.42,29.356 C19.56,30.508 16.752,31.171 14.295,31.171 C11.838,31.171 9.534,30.508 7.547,29.356 L7.547,35.105 L5.559,35.105 L5.392,34.855 C3.859,32.556 3.49,29.881 3.49,27.118 L3.49,25.127 C1.629,22.992 0.799,20.432 0.799,17.682 C0.799,14.933 1.629,12.373 3.49,10.238 L3.49,8.247 C3.49,5.484 3.859,2.809 5.392,0.510 L5.559,0.260 L7.547,0.260 L7.547,6.8 C9.534,4.857 11.838,4.194 14.295,4.194 C16.752,4.194 19.56,4.857 21.42,6.8 L21.42,0.260 L23.30,0.260 L23.197,0.510 C24.731,2.809 25.541,5.484 25.541,8.247 L25.541,10.238 C26.254,11.311 26.818,12.490 27.203,13.748 L29.477,13.748 C30.407,13.748 31.164,14.505 31.164,15.434 L31.164,19.930 C31.164,20.860 30.407,21.617 29.477,21.617 ZM22.167,33.981 L22.425,33.981 C23.729,31.925 24.416,29.558 24.416,27.118 L24.416,26.590 C23.745,27.350 22.991,28.34 22.167,28.628 L22.167,33.981 ZM4.173,27.118 C4.173,29.558 4.861,31.925 6.165,33.981 L6.423,33.981 L6.423,28.628 C5.598,28.34 4.844,27.350 4.173,26.590 L4.173,27.118 ZM6.423,1.384 L6.165,1.384 C4.861,3.440 4.173,5.806 4.173,8.247 L4.173,8.775 C4.844,8.15 5.598,7.331 6.423,6.737 L6.423,1.384 ZM24.416,8.247 C24.416,5.806 23.729,3.440 22.425,1.384 L22.167,1.384 L22.167,6.737 C22.991,7.331 23.745,8.15 24.416,8.775 L24.416,8.247 ZM14.295,5.318 C7.473,5.318 1.924,10.865 1.924,17.682 C1.924,24.500 7.473,30.47 14.295,30.47 C21.116,30.47 26.665,24.500 26.665,17.682 C26.665,10.865 21.116,5.318 14.295,5.318 ZM30.39,15.434 C30.39,15.125 29.787,14.872 29.477,14.872 L27.494,14.872 C27.572,15.241 27.633,15.617 27.681,15.996 L30.39,15.996 L30.39,15.434 ZM30.39,17.120 L27.776,17.120 C27.783,17.307 27.790,17.494 27.790,17.682 C27.790,17.871 27.783,18.58 27.776,18.244 L30.39,18.244 L30.39,17.120 ZM30.39,19.368 L27.680,19.368 C27.633,19.748 27.572,20.123 27.493,20.492 L29.477,20.492 C29.787,20.492 30.39,20.240 30.39,19.930 L30.39,19.368 ZM11.648,15.832 L12.443,15.37 L14.295,16.888 L17.833,13.351 L18.628,14.146 L14.295,18.477 L11.648,15.832 ZM20.259,22.848 L21.838,24.427 C22.228,23.989 22.587,23.517 22.903,23.6 L23.858,23.599 C21.790,26.932 18.215,28.923 14.295,28.923 C8.94,28.923 3.49,23.881 3.49,17.682 C3.49,11.485 8.94,6.442 14.295,6.442 C20.496,6.442 25.541,11.485 25.541,17.682 C25.541,19.448 25.143,21.139 24.357,22.708 L23.352,22.205 C23.974,20.961 24.326,19.631 24.401,18.244 L22.167,18.244 L22.167,17.120 L24.388,17.120 C24.257,14.755 23.314,12.609 21.827,10.949 L20.259,12.516 L19.463,11.722 L21.32,10.154 C19.372,8.668 17.224,7.726 14.857,7.595 L14.857,9.814 L13.733,9.814 L13.733,7.595 C11.366,7.726 9.218,8.668 7.558,10.154 L9.126,11.722 L8.331,12.516 L6.763,10.949 C5.276,12.608 4.333,14.755 4.202,17.120 L6.423,17.120 L6.423,18.244 L4.202,18.244 C4.333,20.609 5.276,22.756 6.763,24.416 L8.331,22.848 L9.126,23.643 L7.558,25.211 C9.218,26.697 11.366,27.639 13.733,27.770 L13.733,25.551 L14.857,25.551 L14.857,27.781 C17.186,27.654 19.350,26.743 21.44,25.222 L19.463,23.643 L20.259,22.848 Z"/>
</svg>