<svg 
 xmlns="http://www.w3.org/2000/svg"
 xmlns:xlink="http://www.w3.org/1999/xlink"
 width="32px" height="36px">
<path fill-rule="evenodd"  fill="rgb(202, 162, 92)"
 d="M27.183,28.224 L27.183,35.463 L26.59,35.463 L26.59,29.339 C25.699,29.661 25.324,29.967 24.934,30.254 L24.934,35.463 L23.810,35.463 L23.810,31.11 C21.513,32.409 18.817,33.215 15.937,33.215 C12.52,33.215 8.504,31.747 5.816,29.339 L5.816,35.463 L4.691,35.463 L4.691,28.224 C2.247,25.529 0.755,21.956 0.755,18.41 C0.755,14.125 2.247,10.552 4.691,7.857 L4.691,0.618 L5.816,0.618 L5.816,6.742 C8.504,4.334 12.52,2.866 15.937,2.866 C18.817,2.866 21.513,3.672 23.810,5.70 L23.810,0.618 L24.934,0.618 L24.934,5.827 C25.324,6.114 25.699,6.420 26.59,6.742 L26.59,0.618 L27.183,0.618 L27.183,7.857 C29.628,10.552 31.120,14.125 31.120,18.41 C31.120,21.956 29.628,25.529 27.183,28.224 ZM15.937,3.990 C8.186,3.990 1.880,10.293 1.880,18.41 C1.880,25.788 8.186,32.91 15.937,32.91 C23.689,32.91 29.995,25.788 29.995,18.41 C29.995,10.293 23.689,3.990 15.937,3.990 ZM25.496,22.537 C25.496,24.706 23.730,26.471 21.560,26.471 C19.390,26.471 17.624,24.706 17.624,22.537 C17.624,20.367 19.390,18.602 21.560,18.602 C23.730,18.602 25.496,20.367 25.496,22.537 ZM21.560,19.727 C20.10,19.727 18.749,20.987 18.749,22.537 C18.749,24.86 20.10,25.347 21.560,25.347 C23.111,25.347 24.372,24.86 24.372,22.537 C24.372,20.987 23.111,19.727 21.560,19.727 ZM14.250,22.537 C14.250,24.706 12.484,26.471 10.314,26.471 C8.144,26.471 6.378,24.706 6.378,22.537 C6.378,20.367 8.144,18.602 10.314,18.602 C12.484,18.602 14.250,20.367 14.250,22.537 ZM10.314,19.727 C8.764,19.727 7.503,20.987 7.503,22.537 C7.503,24.86 8.764,25.347 10.314,25.347 C11.865,25.347 13.126,24.86 13.126,22.537 C13.126,20.987 11.865,19.727 10.314,19.727 ZM15.161,16.553 C15.394,16.430 15.656,16.354 15.937,16.354 C16.372,16.354 16.766,16.524 17.65,16.795 L22.981,13.611 L23.514,14.601 L17.598,17.785 C17.611,17.869 17.624,17.953 17.624,18.41 C17.624,18.970 16.867,19.727 15.937,19.727 C15.7,19.727 14.250,18.970 14.250,18.41 C14.250,17.803 14.301,17.577 14.390,17.372 L7.683,11.146 L8.448,10.322 L15.161,16.553 ZM15.937,18.602 C16.248,18.602 16.500,18.350 16.500,18.41 C16.500,17.731 16.248,17.478 15.937,17.478 C15.627,17.478 15.375,17.731 15.375,18.41 C15.375,18.350 15.627,18.602 15.937,18.602 ZM26.778,25.92 L25.836,24.478 C27.86,22.563 27.746,20.337 27.746,18.41 C27.746,11.532 22.448,6.238 15.937,6.238 C9.426,6.238 4.129,11.532 4.129,18.41 C4.129,24.549 9.426,29.843 15.937,29.843 C19.472,29.843 22.792,28.279 25.46,25.551 L25.914,26.267 C23.446,29.254 19.809,30.967 15.937,30.967 C8.806,30.967 3.4,25.168 3.4,18.41 C3.4,10.913 8.806,5.114 15.937,5.114 C23.69,5.114 28.870,10.913 28.870,18.41 C28.870,20.556 28.147,22.994 26.778,25.92 Z"/>
</svg>