<svg 
 xmlns="http://www.w3.org/2000/svg"
 xmlns:xlink="http://www.w3.org/1999/xlink"
 width="36px" height="36px">
<path fill-rule="evenodd"  fill="rgb(202, 162, 92)"
 d="M30.402,17.227 C30.569,18.137 30.659,19.60 30.659,19.979 C30.659,28.346 23.852,35.153 15.485,35.153 C7.118,35.153 0.311,28.346 0.311,19.979 C0.311,11.611 7.118,4.805 15.485,4.805 C16.404,4.805 17.327,4.894 18.237,5.61 C19.754,2.235 22.737,0.308 26.163,0.308 C31.121,0.308 35.155,4.342 35.155,9.300 C35.155,12.727 33.228,15.709 30.402,17.227 ZM29.535,19.979 C29.535,19.218 29.471,18.455 29.347,17.700 C28.356,18.77 27.285,18.293 26.163,18.293 L21.425,18.293 C21.581,18.840 21.667,19.403 21.667,19.979 C21.667,21.829 20.846,23.488 19.553,24.622 L24.186,30.999 C27.440,28.423 29.535,24.442 29.535,19.979 ZM15.485,34.29 C18.366,34.29 21.47,33.156 23.279,31.662 L18.644,25.283 C17.718,25.836 16.640,26.161 15.485,26.161 C14.330,26.161 13.252,25.836 12.326,25.283 L7.691,31.662 C9.923,33.156 12.603,34.29 15.485,34.29 ZM1.435,19.979 C1.435,24.442 3.529,28.423 6.784,30.999 L11.416,24.622 C10.124,23.488 9.303,21.829 9.303,19.979 C9.303,19.509 9.360,19.53 9.460,18.612 L1.962,16.176 C1.621,17.386 1.435,18.661 1.435,19.979 ZM14.923,5.942 C9.132,6.172 4.231,9.920 2.307,15.106 L9.805,17.542 C10.682,15.506 12.622,14.33 14.923,13.825 L14.923,5.942 ZM16.47,5.943 L16.47,13.826 C16.428,13.860 16.803,13.934 17.171,14.39 L17.171,9.300 C17.171,8.178 17.387,7.107 17.764,6.117 C17.194,6.23 16.621,5.967 16.47,5.943 ZM17.171,18.293 L17.171,15.217 C16.628,15.24 16.64,14.920 15.485,14.920 C12.696,14.920 10.427,17.190 10.427,19.979 C10.427,22.767 12.696,25.37 15.485,25.37 C18.273,25.37 20.543,22.767 20.543,19.979 C20.543,19.400 20.439,18.835 20.247,18.293 L17.171,18.293 ZM26.163,1.432 C21.824,1.432 18.295,4.961 18.295,9.300 L18.295,17.169 L26.163,17.169 C30.502,17.169 34.31,13.639 34.31,9.300 C34.31,4.961 30.502,1.432 26.163,1.432 ZM32.907,8.739 L32.907,9.862 L31.754,9.862 C31.693,10.479 31.527,11.65 31.282,11.607 L32.284,12.186 L31.722,13.159 L30.718,12.579 C30.363,13.70 29.933,13.501 29.442,13.855 L30.22,14.860 L29.48,15.422 L28.469,14.420 C27.927,14.665 27.342,14.831 26.725,14.892 L26.725,16.45 L25.601,16.45 L25.601,14.892 C24.984,14.831 24.399,14.665 23.856,14.420 L23.278,15.422 L22.304,14.860 L22.884,13.855 C22.393,13.501 21.963,13.70 21.608,12.579 L20.604,13.159 L20.42,12.186 L21.44,11.607 C20.799,11.65 20.633,10.479 20.572,9.862 L19.419,9.862 L19.419,8.739 L20.572,8.739 C20.633,8.122 20.799,7.536 21.44,6.994 L20.42,6.415 L20.604,5.442 L21.608,6.21 C21.963,5.530 22.393,5.100 22.884,4.745 L22.304,3.741 L23.278,3.179 L23.856,4.181 C24.399,3.936 24.984,3.770 25.601,3.709 L25.601,2.556 L26.725,2.556 L26.725,3.709 C27.342,3.770 27.927,3.935 28.469,4.181 L29.48,3.179 L30.22,3.741 L29.442,4.745 C29.933,5.100 30.363,5.530 30.718,6.21 L31.722,5.442 L32.284,6.415 L31.282,6.994 C31.527,7.536 31.693,8.121 31.754,8.739 L32.907,8.739 ZM26.163,4.805 C23.684,4.805 21.667,6.821 21.667,9.300 C21.667,11.780 23.684,13.796 26.163,13.796 C28.642,13.796 30.659,11.780 30.659,9.300 C30.659,6.821 28.642,4.805 26.163,4.805 ZM26.163,12.673 C24.303,12.673 22.791,11.160 22.791,9.300 C22.791,7.441 24.303,5.929 26.163,5.929 C28.23,5.929 29.535,7.441 29.535,9.300 C29.535,11.160 28.23,12.673 26.163,12.673 ZM26.163,7.52 C24.923,7.52 23.915,8.61 23.915,9.300 C23.915,10.540 24.923,11.549 26.163,11.549 C27.403,11.549 28.411,10.540 28.411,9.300 C28.411,8.61 27.403,7.52 26.163,7.52 ZM25.39,21.665 C26.279,21.665 27.287,22.673 27.287,23.913 C27.287,25.153 26.279,26.161 25.39,26.161 C23.799,26.161 22.791,25.153 22.791,23.913 C22.791,22.673 23.799,21.665 25.39,21.665 ZM25.39,25.37 C25.659,25.37 26.163,24.533 26.163,23.913 C26.163,23.293 25.659,22.789 25.39,22.789 C24.419,22.789 23.915,23.293 23.915,23.913 C23.915,24.533 24.419,25.37 25.39,25.37 Z"/>
</svg>