<svg 
 xmlns="http://www.w3.org/2000/svg"
 xmlns:xlink="http://www.w3.org/1999/xlink"
 width="36px" height="36px">
<path fill-rule="evenodd"  fill="rgb(202, 162, 92)"
 d="M34.593,6.872 L34.264,7.201 C33.901,7.563 33.419,7.763 32.907,7.763 C32.506,7.763 32.127,7.638 31.806,7.411 L30.752,8.464 C32.811,11.258 34.31,14.706 34.31,18.434 C34.31,27.725 26.468,35.284 17.171,35.284 C7.874,35.284 0.311,27.725 0.311,18.434 C0.311,9.143 7.874,1.584 17.171,1.584 C20.901,1.584 24.352,2.804 27.147,4.862 L28.201,3.809 C27.974,3.488 27.849,3.108 27.849,2.708 C27.849,2.195 28.49,1.714 28.411,1.351 L28.740,1.23 C29.466,0.298 30.728,0.299 31.454,1.23 L34.593,4.160 C34.955,4.522 35.155,5.3 35.155,5.516 C35.155,6.29 34.955,6.510 34.593,6.872 ZM17.171,2.708 C8.494,2.708 1.435,9.763 1.435,18.434 C1.435,27.106 8.494,34.160 17.171,34.160 C25.848,34.160 32.907,27.106 32.907,18.434 C32.907,9.763 25.848,2.708 17.171,2.708 ZM28.35,5.563 C28.762,6.177 29.436,6.851 30.50,7.577 L30.988,6.639 L28.973,4.625 L28.35,5.563 ZM33.798,4.954 L30.659,1.817 C30.508,1.667 30.309,1.584 30.97,1.584 C29.885,1.584 29.686,1.667 29.535,1.817 L29.206,2.146 C29.55,2.296 28.973,2.496 28.973,2.708 C28.973,2.920 29.55,3.119 29.206,3.270 L32.345,6.406 C32.646,6.707 33.168,6.707 33.469,6.406 L33.798,6.78 C33.949,5.928 34.31,5.728 34.31,5.516 C34.31,5.304 33.949,5.104 33.798,4.954 ZM24.477,13.941 C24.477,13.12 25.233,12.256 26.163,12.256 C27.92,12.256 27.849,13.12 27.849,13.941 C27.849,14.870 27.92,15.626 26.163,15.626 C25.233,15.626 24.477,14.870 24.477,13.941 ZM26.725,13.941 C26.725,13.631 26.473,13.379 26.163,13.379 C25.853,13.379 25.601,13.631 25.601,13.941 C25.601,14.250 25.853,14.503 26.163,14.503 C26.473,14.503 26.725,14.250 26.725,13.941 ZM24.846,28.488 L23.844,27.486 C23.684,27.562 23.520,27.630 23.353,27.689 L23.353,29.106 L20.930,29.106 C20.3,30.137 18.664,30.791 17.171,30.791 C14.382,30.791 12.113,28.523 12.113,25.736 C12.113,22.993 14.312,20.757 17.42,20.687 L16.104,19.750 L18.488,17.367 L19.491,18.368 C19.650,18.293 19.814,18.225 19.981,18.166 L19.981,16.749 L23.354,16.749 L23.354,18.166 C23.521,18.225 23.685,18.293 23.844,18.368 L24.847,17.367 L27.231,19.750 L26.229,20.752 C26.304,20.912 26.373,21.76 26.432,21.243 L27.849,21.243 L27.849,24.612 L26.431,24.612 C26.372,24.779 26.304,24.943 26.228,25.103 L27.230,26.105 L24.846,28.488 ZM14.25,28.86 L15.814,26.298 L13.282,26.298 C13.377,26.962 13.639,27.572 14.25,28.86 ZM13.282,25.174 L15.814,25.174 L14.25,23.386 C13.639,23.900 13.377,24.510 13.282,25.174 ZM16.609,21.849 C15.944,21.944 15.333,22.206 14.819,22.592 L16.609,24.380 L16.609,21.849 ZM16.609,27.92 L14.819,28.880 C15.334,29.265 15.944,29.527 16.609,29.622 L16.609,27.92 ZM20.318,23.386 L18.528,25.174 L21.60,25.174 C20.964,24.510 20.703,23.900 20.318,23.386 ZM22.83,24.554 C22.811,24.368 23.353,23.712 23.353,22.927 C23.353,21.999 22.596,21.243 21.667,21.243 C21.168,21.243 20.702,21.467 20.386,21.836 C21.218,22.522 21.823,23.472 22.83,24.554 ZM21.60,26.298 L18.528,26.298 L20.317,28.86 C20.702,27.572 20.964,26.962 21.60,26.298 ZM17.733,29.622 C18.398,29.527 19.8,29.265 19.523,28.880 L17.733,27.92 L17.733,29.622 ZM17.733,24.380 L19.523,22.592 C19.8,22.206 18.398,21.944 17.733,21.849 L17.733,24.380 ZM26.725,23.489 L26.725,22.366 L25.581,22.366 L25.472,21.945 C25.380,21.589 25.239,21.249 25.53,20.934 L24.832,20.559 L25.641,19.751 L24.846,18.956 L24.37,19.765 L23.661,19.543 C23.347,19.358 23.7,19.217 22.650,19.125 L22.229,19.17 L22.229,17.872 L21.105,17.872 L21.105,19.17 L20.683,19.125 C20.326,19.217 19.986,19.357 19.672,19.543 L19.297,19.764 L18.488,18.955 L17.693,19.750 L18.503,20.559 L18.346,20.824 C18.730,20.916 19.97,21.51 19.441,21.225 C19.967,20.542 20.786,20.119 21.667,20.119 C23.216,20.119 24.477,21.379 24.477,22.927 C24.477,24.285 23.509,25.420 22.226,25.679 C22.226,25.698 22.229,25.717 22.229,25.736 C22.229,26.543 22.33,27.305 21.695,27.982 L22.229,27.982 L22.229,26.838 L22.650,26.730 C23.7,26.638 23.347,26.498 23.661,26.313 L24.37,26.91 L24.846,26.899 L25.641,26.105 L24.832,25.296 L25.53,24.921 C25.239,24.607 25.380,24.267 25.472,23.910 L25.581,23.489 L26.725,23.489 ZM28.399,27.780 L27.536,27.61 C28.692,25.675 29.540,24.70 30.60,22.362 C28.838,22.342 27.849,21.345 27.849,20.119 C27.849,18.880 28.857,17.872 30.97,17.872 C30.285,17.872 30.468,17.904 30.647,17.949 C30.547,15.159 29.597,12.583 28.46,10.472 C27.267,10.169 26.446,10.9 25.601,10.9 C23.318,10.9 21.223,11.147 19.969,13.50 C19.845,16.349 17.129,18.996 13.799,18.996 C10.390,18.996 7.617,16.224 7.617,12.817 C7.617,9.411 10.390,6.639 13.799,6.639 C15.298,6.639 16.673,7.176 17.745,8.67 C18.85,7.21 18.572,6.21 19.189,5.106 C18.530,5.7 17.856,4.954 17.171,4.954 C10.883,4.954 5.586,9.278 4.100,15.107 C5.450,15.310 6.493,16.467 6.493,17.872 C6.493,19.357 5.331,20.564 3.870,20.662 C4.214,22.719 5.26,24.619 6.192,26.250 C6.589,25.925 7.90,25.736 7.617,25.736 C8.857,25.736 9.865,26.743 9.865,27.982 C9.865,28.509 9.675,29.10 9.350,29.406 C11.558,30.983 14.257,31.914 17.171,31.914 C20.867,31.914 24.316,30.449 26.883,27.789 L27.692,28.568 C24.911,31.450 21.176,33.37 17.171,33.37 C9.113,33.37 2.559,26.486 2.559,18.434 C2.559,10.382 9.113,3.831 17.171,3.831 C25.228,3.831 31.783,10.383 31.783,18.434 C31.783,21.846 30.581,25.165 28.399,27.780 ZM30.97,18.996 C29.477,18.996 28.973,19.500 28.973,20.119 C28.973,20.739 29.477,21.243 30.97,21.243 C30.186,21.243 30.272,21.229 30.357,21.209 C30.501,20.528 30.592,19.835 30.628,19.134 C30.466,19.46 30.285,18.996 30.97,18.996 ZM8.460,28.714 C8.634,28.512 8.741,28.256 8.741,27.982 C8.741,27.363 8.237,26.859 7.617,26.859 C7.343,26.859 7.87,26.966 6.885,27.140 C7.366,27.707 7.893,28.233 8.460,28.714 ZM3.683,18.434 C3.683,18.811 3.702,19.184 3.733,19.552 C4.639,19.525 5.369,18.785 5.369,17.872 C5.369,17.8 4.711,16.301 3.870,16.207 C3.749,16.932 3.683,17.675 3.683,18.434 ZM13.799,17.872 C15.961,17.872 17.806,16.507 18.528,14.594 L18.363,14.611 C15.700,14.877 13.162,15.644 10.804,16.882 C11.643,17.501 12.678,17.872 13.799,17.872 ZM13.799,7.763 C11.237,7.763 9.119,9.677 8.790,12.149 C11.167,11.658 13.171,10.18 14.114,7.778 C14.10,7.772 13.906,7.763 13.799,7.763 ZM15.242,7.975 C14.169,10.756 11.697,12.785 8.765,13.298 C8.865,14.350 9.289,15.309 9.936,16.73 C12.519,14.658 15.312,13.787 18.251,13.493 L18.815,13.436 C18.840,13.233 18.857,13.28 18.857,12.817 C18.857,10.532 17.329,8.597 15.242,7.975 ZM20.393,5.347 C19.585,6.437 18.987,7.685 18.644,8.993 C19.201,9.695 19.606,10.521 19.816,11.421 C21.291,9.815 23.370,8.886 25.601,8.886 C25.998,8.886 26.389,8.924 26.776,8.983 C25.52,7.233 22.854,5.952 20.393,5.347 ZM15.485,13.379 C14.555,13.379 13.799,12.623 13.799,11.694 C13.799,10.765 14.555,10.9 15.485,10.9 C16.414,10.9 17.171,10.765 17.171,11.694 C17.171,12.623 16.414,13.379 15.485,13.379 ZM15.485,11.133 C15.175,11.133 14.923,11.385 14.923,11.694 C14.923,12.4 15.175,12.256 15.485,12.256 C15.795,12.256 16.47,12.4 16.47,11.694 C16.47,11.385 15.795,11.133 15.485,11.133 Z"/>
</svg>