<svg 
 xmlns="http://www.w3.org/2000/svg"
 xmlns:xlink="http://www.w3.org/1999/xlink"
 width="11px" height="21px">
<path fill-rule="evenodd"  fill="rgb(0, 0, 0)"
 d="M7.180,7.501 L7.180,5.782 C7.180,5.524 7.192,5.324 7.216,5.183 C7.240,5.41 7.296,4.903 7.381,4.765 C7.467,4.628 7.606,4.533 7.797,4.481 C7.989,4.428 8.244,4.402 8.562,4.402 L10.299,4.402 L10.299,0.964 L7.522,0.964 C5.916,0.964 4.762,1.341 4.61,2.95 C3.359,2.850 3.9,3.962 3.9,5.431 L3.9,7.501 L0.929,7.501 L0.929,10.939 L3.9,10.939 L3.9,20.915 L7.180,20.915 L7.180,10.939 L9.956,10.939 L10.323,7.501 L7.180,7.501 Z"/>
</svg>