<svg 
 xmlns="http://www.w3.org/2000/svg"
 xmlns:xlink="http://www.w3.org/1999/xlink"
 width="21px" height="21px">
<path fill-rule="evenodd"  fill="rgb(0, 0, 0)"
 d="M15.38,20.821 L6.116,20.821 C3.87,20.821 0.622,18.356 0.622,15.326 L0.622,6.404 C0.622,3.375 3.87,0.909 6.116,0.909 L15.38,0.909 C18.68,0.909 20.533,3.375 20.533,6.404 L20.533,15.326 C20.533,18.356 18.68,20.821 15.38,20.821 ZM18.766,15.326 L18.766,6.404 C18.766,4.348 17.94,2.676 15.38,2.676 L6.116,2.676 C4.61,2.676 2.388,4.348 2.388,6.404 L2.388,15.326 C2.388,17.382 4.61,19.54 6.116,19.54 L15.38,19.54 C17.94,19.54 18.766,17.382 18.766,15.326 L18.766,15.326 ZM15.923,6.827 C15.583,6.827 15.248,6.689 15.8,6.449 C14.766,6.207 14.627,5.873 14.627,5.532 C14.627,5.191 14.766,4.856 15.8,4.616 C15.248,4.375 15.583,4.237 15.923,4.237 C16.264,4.237 16.599,4.375 16.839,4.616 C17.81,4.856 17.218,5.191 17.218,5.532 C17.218,5.873 17.81,6.207 16.839,6.449 C16.598,6.689 16.264,6.827 15.923,6.827 ZM10.577,15.996 C7.748,15.996 5.447,13.694 5.447,10.865 C5.447,8.36 7.748,5.735 10.577,5.735 C13.406,5.735 15.708,8.36 15.708,10.865 C15.708,13.694 13.406,15.996 10.577,15.996 ZM10.577,7.501 C8.722,7.501 7.213,9.10 7.213,10.865 C7.213,12.720 8.722,14.229 10.577,14.229 C12.432,14.229 13.941,12.720 13.941,10.865 C13.941,9.10 12.432,7.501 10.577,7.501 Z"/>
</svg>