<svg 
 xmlns="http://www.w3.org/2000/svg"
 xmlns:xlink="http://www.w3.org/1999/xlink"
 width="21px" height="20px">
<path fill-rule="evenodd"  fill="rgb(0, 0, 0)"
 d="M20.487,12.224 L20.487,19.543 L16.220,19.543 L16.220,12.715 C16.220,10.999 15.603,9.828 14.58,9.828 C12.879,9.828 12.177,10.618 11.868,11.381 C11.756,11.654 11.727,12.33 11.727,12.415 L11.727,19.543 L7.458,19.543 C7.458,19.543 7.515,7.978 7.458,6.779 L11.726,6.779 L11.726,8.589 C11.718,8.602 11.706,8.617 11.698,8.630 L11.726,8.630 L11.726,8.589 C12.293,7.720 13.306,6.480 15.573,6.480 C18.382,6.480 20.487,8.304 20.487,12.224 ZM2.992,0.627 C1.532,0.627 0.576,1.579 0.576,2.832 C0.576,4.57 1.504,5.38 2.935,5.38 L2.964,5.38 C4.453,5.38 5.378,4.57 5.378,2.832 C5.350,1.579 4.453,0.627 2.992,0.627 ZM0.830,19.543 L5.97,19.543 L5.97,6.779 L0.830,6.779 L0.830,19.543 Z"/>
</svg>