<svg 
 xmlns="http://www.w3.org/2000/svg"
 xmlns:xlink="http://www.w3.org/1999/xlink"
 width="21px" height="18px">
<path fill-rule="evenodd"  fill="rgb(0, 0, 0)"
 d="M19.517,0.974 C18.727,1.449 17.852,1.794 16.922,1.981 C16.177,1.173 15.116,0.671 13.941,0.671 C11.684,0.671 9.855,2.529 9.855,4.818 C9.855,5.143 9.892,5.460 9.961,5.763 C6.567,5.590 3.557,3.938 1.542,1.429 C1.190,2.41 0.990,2.753 0.990,3.514 C0.990,4.953 1.711,6.223 2.806,6.966 C2.137,6.943 1.507,6.756 0.956,6.445 L0.956,6.497 C0.956,8.507 2.365,10.182 4.232,10.565 C3.890,10.659 3.529,10.711 3.156,10.711 C2.893,10.711 2.638,10.683 2.387,10.635 C2.907,12.283 4.415,13.482 6.202,13.517 C4.805,14.629 3.43,15.291 1.130,15.291 C0.800,15.291 0.475,15.272 0.155,15.234 C1.963,16.410 4.109,17.98 6.417,17.98 C13.930,17.98 18.38,10.777 18.38,5.296 L18.25,4.758 C18.826,4.176 19.519,3.445 20.66,2.614 C19.333,2.944 18.547,3.168 17.721,3.268 C18.564,2.754 19.211,1.941 19.517,0.974 Z"/>
</svg>