<svg 
 xmlns="http://www.w3.org/2000/svg"
 xmlns:xlink="http://www.w3.org/1999/xlink"
 width="21px" height="15px">
<path fill-rule="evenodd"  fill="rgb(0, 0, 0)"
 d="M20.452,2.346 C20.209,1.282 19.343,0.498 18.300,0.381 C15.832,0.104 13.333,0.103 10.846,0.104 C8.358,0.103 5.859,0.104 3.390,0.381 C2.348,0.498 1.483,1.282 1.239,2.346 C0.892,3.859 0.889,5.512 0.889,7.71 C0.889,8.630 0.889,10.282 1.235,11.795 C1.479,12.858 2.344,13.643 3.387,13.759 C5.855,14.36 8.354,14.38 10.842,14.36 C13.330,14.38 15.828,14.36 18.296,13.759 C19.338,13.643 20.204,12.858 20.448,11.795 C20.795,10.282 20.796,8.630 20.796,7.71 C20.796,5.512 20.799,3.859 20.452,2.346 ZM8.273,10.173 C8.273,7.962 8.273,5.774 8.273,3.563 C10.383,4.668 12.479,5.766 14.602,6.878 C12.486,7.980 10.389,9.72 8.273,10.173 Z"/>
</svg>