<svg 
 xmlns="http://www.w3.org/2000/svg"
 xmlns:xlink="http://www.w3.org/1999/xlink"
 width="17px" height="21px">
<path fill-rule="evenodd"  fill="rgb(0, 0, 0)"
 d="M16.275,19.617 L15.301,4.558 C15.279,4.226 15.8,3.969 14.680,3.969 L11.961,3.969 L11.961,3.564 C11.961,1.826 10.567,0.413 8.854,0.413 L7.785,0.413 C6.72,0.413 4.678,1.826 4.678,3.564 L4.678,3.969 L1.958,3.969 C1.631,3.969 1.360,4.226 1.338,4.558 L0.362,19.653 C0.350,19.827 0.411,19.998 0.528,20.125 C0.646,20.253 0.810,20.325 0.982,20.325 L15.657,20.325 C15.657,20.325 15.658,20.325 15.658,20.325 C16.1,20.325 16.279,20.42 16.279,19.695 C16.279,19.668 16.278,19.642 16.275,19.617 ZM5.921,3.564 C5.921,2.521 6.757,1.673 7.785,1.673 L8.854,1.673 C9.882,1.673 10.718,2.521 10.718,3.564 L10.718,3.969 L5.921,3.969 L5.921,3.564 ZM1.646,19.64 L2.541,5.229 L4.678,5.229 L4.678,5.791 C4.235,6.21 3.932,6.488 3.932,7.25 C3.932,7.789 4.545,8.411 5.299,8.411 C6.53,8.411 6.666,7.789 6.666,7.25 C6.666,6.488 6.363,6.21 5.921,5.791 L5.921,5.229 L10.718,5.229 L10.718,5.791 C10.276,6.21 9.972,6.488 9.972,7.25 C9.972,7.789 10.586,8.411 11.340,8.411 C12.94,8.411 12.707,7.789 12.707,7.25 C12.707,6.488 12.403,6.21 11.961,5.791 L11.961,5.229 L14.98,5.229 L14.993,19.64 L1.646,19.64 Z"/>
</svg>