<svg 
 xmlns="http://www.w3.org/2000/svg"
 xmlns:xlink="http://www.w3.org/1999/xlink"
 width="21px" height="16px">
<path fill-rule="evenodd"  fill="rgb(0, 0, 0)"
 d="M20.103,15.836 L1.78,15.836 C0.696,15.836 0.386,15.524 0.386,15.139 L0.386,1.599 C0.386,1.214 0.696,0.902 1.78,0.902 L20.103,0.902 C20.485,0.902 20.795,1.214 20.795,1.599 L20.795,15.139 C20.795,15.524 20.485,15.836 20.103,15.836 ZM19.411,2.295 L1.770,2.295 L1.770,14.443 L19.411,14.443 L19.411,2.295 ZM4.310,4.390 L10.590,8.285 L16.871,4.390 C17.197,4.188 17.623,4.291 17.824,4.618 C18.24,4.945 17.923,5.375 17.597,5.577 L10.954,9.697 C10.842,9.765 10.716,9.800 10.590,9.800 C10.465,9.800 10.339,9.765 10.228,9.697 L3.584,5.577 C3.258,5.375 3.157,4.945 3.358,4.618 C3.558,4.290 3.985,4.189 4.310,4.390 Z"/>
</svg>