<svg 
 xmlns="http://www.w3.org/2000/svg"
 xmlns:xlink="http://www.w3.org/1999/xlink"
 width="21px" height="21px">
<path fill-rule="evenodd"  fill="rgb(0, 0, 0)"
 d="M10.897,0.413 C5.408,0.413 0.942,4.879 0.942,10.369 C0.942,15.859 5.408,20.325 10.897,20.325 C16.387,20.325 20.853,15.859 20.853,10.369 C20.853,4.879 16.387,0.413 10.897,0.413 ZM19.570,9.739 L15.47,9.739 C14.987,7.549 14.612,5.503 13.977,3.922 C13.630,3.58 13.217,2.370 12.756,1.874 C16.462,2.684 19.291,5.864 19.570,9.739 ZM10.897,18.525 C10.249,18.525 9.535,17.710 8.987,16.347 C8.409,14.908 8.67,13.28 8.8,10.999 L13.787,10.999 C13.728,13.28 13.385,14.908 12.808,16.347 C12.260,17.710 11.546,18.525 10.897,18.525 ZM8.8,9.739 C8.67,7.710 8.409,5.830 8.987,4.391 C9.535,3.27 10.249,2.213 10.897,2.213 C11.546,2.213 12.260,3.27 12.808,4.391 C13.385,5.830 13.728,7.710 13.787,9.739 L8.8,9.739 ZM9.38,1.874 C8.577,2.370 8.164,3.58 7.818,3.921 C7.182,5.503 6.808,7.549 6.747,9.739 L2.225,9.739 C2.504,5.864 5.333,2.684 9.38,1.874 ZM2.225,10.999 L6.747,10.999 C6.808,13.189 7.182,15.235 7.818,16.816 C8.164,17.680 8.577,18.368 9.38,18.864 C5.333,18.53 2.504,14.874 2.225,10.999 ZM12.756,18.864 C13.217,18.368 13.630,17.680 13.977,16.817 C14.612,15.235 14.987,13.189 15.47,10.999 L19.570,10.999 C19.291,14.874 16.462,18.53 12.756,18.864 Z"/>
</svg>