<svg 
 xmlns="http://www.w3.org/2000/svg"
 xmlns:xlink="http://www.w3.org/1999/xlink"
 width="21px" height="21px">
<path fill-rule="evenodd"  fill="rgb(0, 0, 0)"
 d="M18.782,2.482 C17.446,1.148 15.671,0.413 13.782,0.413 C11.893,0.413 10.117,1.148 8.781,2.482 C7.830,3.432 7.173,4.625 6.881,5.931 C6.631,7.47 6.656,8.204 6.949,9.303 L1.138,15.108 C0.994,15.252 0.915,15.448 0.920,15.652 L1.14,19.506 C1.23,19.902 1.343,20.221 1.739,20.231 L5.598,20.324 C5.604,20.325 5.610,20.325 5.616,20.325 C5.813,20.325 6.2,20.246 6.142,20.107 L10.459,15.795 C10.459,15.795 10.459,15.795 10.459,15.795 C10.459,15.795 10.459,15.795 10.459,15.794 L11.954,14.302 C12.549,14.460 13.162,14.541 13.782,14.541 C13.782,14.541 13.782,14.541 13.782,14.541 C15.671,14.541 17.447,13.806 18.782,12.472 C21.539,9.718 21.539,5.236 18.782,2.482 ZM17.730,11.421 C16.676,12.475 15.274,13.55 13.782,13.55 C13.167,13.55 12.561,12.955 11.981,12.758 C11.713,12.668 11.417,12.737 11.217,12.937 L9.933,14.219 L9.584,13.869 C9.293,13.579 8.822,13.579 8.532,13.869 C8.241,14.160 8.241,14.630 8.532,14.920 L8.881,15.269 L7.447,16.701 L7.98,16.353 C6.807,16.62 6.337,16.62 6.46,16.353 C5.755,16.643 5.755,17.113 6.46,17.403 L6.395,17.752 L5.315,18.831 L2.484,18.762 L2.415,15.934 L8.316,10.39 C8.516,9.839 8.586,9.543 8.495,9.275 C7.805,7.247 8.318,5.46 9.833,3.533 C10.888,2.479 12.290,1.899 13.782,1.899 C15.22,1.899 16.201,2.301 17.169,3.42 L15.25,5.184 C14.671,4.997 14.274,4.898 13.862,4.898 C13.194,4.898 12.565,5.158 12.93,5.630 C11.118,6.604 11.118,8.190 12.93,9.164 C12.565,9.636 13.194,9.896 13.862,9.896 C14.530,9.896 15.158,9.636 15.631,9.164 C16.103,8.692 16.363,8.64 16.363,7.397 C16.363,6.985 16.264,6.589 16.77,6.235 L18.220,4.94 C19.891,6.279 19.729,9.425 17.730,11.421 ZM14.579,6.681 C14.770,6.872 14.876,7.127 14.876,7.397 C14.876,7.667 14.770,7.922 14.579,8.113 C14.387,8.304 14.133,8.410 13.862,8.410 C13.591,8.410 13.336,8.304 13.145,8.113 C12.750,7.718 12.750,7.75 13.145,6.681 C13.336,6.489 13.591,6.384 13.862,6.384 C14.133,6.384 14.387,6.489 14.579,6.681 Z"/>
</svg>