<svg 
 xmlns="http://www.w3.org/2000/svg"
 xmlns:xlink="http://www.w3.org/1999/xlink"
 width="21px" height="21px">
<path fill-rule="evenodd"  fill="rgb(0, 0, 0)"
 d="M18.411,2.606 C16.997,1.192 15.117,0.413 13.117,0.413 C13.117,0.413 13.117,0.413 13.117,0.413 C11.117,0.413 9.237,1.192 7.822,2.606 C6.408,4.20 5.630,5.901 5.630,7.900 C5.630,9.265 5.993,10.574 6.672,11.718 L1.223,17.167 C0.881,17.508 0.693,17.963 0.693,18.447 C0.693,18.931 0.881,19.385 1.223,19.727 L1.291,19.794 C1.632,20.136 2.87,20.325 2.571,20.325 C3.54,20.325 3.509,20.136 3.851,19.794 L9.300,14.345 C10.443,15.25 11.752,15.388 13.117,15.388 C15.117,15.388 16.997,14.609 18.411,13.195 C19.825,11.781 20.604,9.901 20.604,7.900 C20.604,5.901 19.825,4.20 18.411,2.606 ZM2.936,18.880 C2.839,18.978 2.709,19.32 2.571,19.32 C2.433,19.32 2.303,18.978 2.205,18.880 L2.137,18.813 C2.40,18.715 1.986,18.585 1.986,18.447 C1.986,18.309 2.40,18.178 2.137,18.81 L7.438,12.780 C7.560,12.922 7.688,13.61 7.822,13.195 C7.956,13.329 8.95,13.457 8.237,13.580 L2.936,18.880 ZM17.497,12.281 C16.327,13.451 14.771,14.95 13.117,14.95 C11.462,14.95 9.907,13.451 8.737,12.281 C7.567,11.111 6.922,9.555 6.923,7.901 C6.923,6.246 7.567,4.690 8.737,3.520 C9.907,2.351 11.462,1.706 13.117,1.706 C14.771,1.706 16.327,2.351 17.497,3.520 C18.667,4.690 19.311,6.246 19.311,7.901 C19.311,9.555 18.667,11.111 17.497,12.281 Z"/>
</svg>