<svg 
 xmlns="http://www.w3.org/2000/svg"
 xmlns:xlink="http://www.w3.org/1999/xlink"
 width="17px" height="21px">
<path fill-rule="evenodd"  fill="rgb(0, 0, 0)"
 d="M14.687,12.706 C13.844,13.916 12.689,14.859 11.336,15.448 L8.743,19.966 C8.616,20.188 8.377,20.325 8.119,20.325 C7.861,20.325 7.623,20.188 7.496,19.966 L4.903,15.448 C3.550,14.859 2.395,13.916 1.552,12.706 C0.638,11.396 0.155,9.860 0.155,8.264 C0.155,3.935 3.728,0.413 8.119,0.413 C12.511,0.413 16.84,3.935 16.84,8.264 C16.84,9.860 15.601,11.396 14.687,12.706 ZM8.119,1.825 C4.518,1.825 1.587,4.714 1.587,8.264 C1.587,10.904 3.192,13.248 5.675,14.237 C5.825,14.297 5.950,14.405 6.30,14.544 L8.119,18.185 L10.209,14.544 C10.289,14.405 10.414,14.297 10.564,14.237 C13.47,13.248 14.651,10.904 14.651,8.264 C14.651,4.714 11.721,1.825 8.119,1.825 ZM8.119,11.188 C6.461,11.188 5.111,9.858 5.111,8.222 C5.111,6.587 6.461,5.257 8.119,5.257 C9.778,5.257 11.128,6.587 11.128,8.222 C11.128,9.858 9.778,11.188 8.119,11.188 ZM8.119,6.669 C7.251,6.669 6.544,7.366 6.544,8.222 C6.544,9.79 7.251,9.776 8.119,9.776 C8.988,9.776 9.695,9.79 9.695,8.222 C9.695,7.366 8.988,6.669 8.119,6.669 Z"/>
</svg>