<svg 
 xmlns="http://www.w3.org/2000/svg"
 xmlns:xlink="http://www.w3.org/1999/xlink"
 width="21px" height="19px">
<path fill-rule="evenodd"  fill="rgb(0, 0, 0)"
 d="M10.93,18.827 C9.905,18.827 9.726,18.750 9.599,18.614 L1.641,10.122 C1.639,10.120 1.637,10.117 1.635,10.115 C0.669,9.57 0.137,7.653 0.137,6.164 C0.137,4.675 0.669,3.272 1.635,2.213 L1.756,2.80 C2.739,1.2 4.52,0.409 5.453,0.409 C6.853,0.409 8.166,1.2 9.149,2.80 L10.93,3.114 L11.36,2.80 C12.19,1.2 13.332,0.409 14.733,0.409 C16.133,0.409 17.446,1.2 18.429,2.80 L18.550,2.212 C19.516,3.272 20.48,4.675 20.48,6.164 C20.48,7.653 19.516,9.57 18.551,10.115 C18.548,10.117 18.546,10.120 18.544,10.122 L10.587,18.614 C10.459,18.750 10.280,18.827 10.93,18.827 ZM2.632,9.218 L10.93,17.179 L17.554,9.218 C19.89,7.532 19.88,4.792 17.551,3.107 L17.430,2.974 C16.705,2.180 15.747,1.742 14.733,1.742 C13.718,1.742 12.760,2.180 12.36,2.974 L10.593,4.556 C10.465,4.696 10.283,4.776 10.93,4.776 C9.902,4.776 9.721,4.696 9.593,4.556 L8.150,2.974 C7.425,2.180 6.467,1.742 5.453,1.742 C4.438,1.742 3.480,2.180 2.756,2.974 L2.635,3.107 C1.98,4.792 1.97,7.532 2.632,9.218 Z"/>
</svg>