<svg 
 xmlns="http://www.w3.org/2000/svg"
 xmlns:xlink="http://www.w3.org/1999/xlink"
 width="21px" height="24px">
<path fill-rule="evenodd"  fill="rgb(202, 162, 92)"
 d="M19.146,4.676 L14.880,4.676 C14.739,2.330 12.968,0.382 10.613,0.382 C8.258,0.382 6.487,2.330 6.346,4.676 L2.79,4.676 L0.657,23.281 L20.568,23.281 L19.146,4.676 ZM10.613,1.819 C12.186,1.819 13.321,3.122 13.457,4.676 L7.768,4.676 C7.906,3.122 9.38,1.819 10.613,1.819 ZM3.502,6.107 L17.724,6.107 L19.152,21.843 L2.72,21.843 L3.502,6.107 ZM7.57,7.539 C6.272,7.539 5.635,8.179 5.635,8.969 C5.635,9.760 6.272,10.400 7.57,10.400 C7.842,10.400 8.480,9.760 8.480,8.969 C8.480,8.179 7.842,7.539 7.57,7.539 ZM14.168,7.539 C13.383,7.539 12.746,8.179 12.746,8.969 C12.746,9.760 13.383,10.400 14.168,10.400 C14.953,10.400 15.591,9.760 15.591,8.969 C15.591,8.179 14.953,7.539 14.168,7.539 Z"/>
</svg>