<svg 
 xmlns="http://www.w3.org/2000/svg"
 xmlns:xlink="http://www.w3.org/1999/xlink"
 width="20px" height="16px">
<path fill-rule="evenodd"  fill="rgb(202, 162, 92)"
 d="M19.236,0.868 C18.897,0.536 18.489,0.370 18.13,0.370 L2.73,0.370 C1.597,0.370 1.189,0.536 0.849,0.868 C0.510,1.200 0.340,1.599 0.340,2.66 L0.340,13.598 C0.340,14.64 0.510,14.463 0.849,14.795 C1.189,15.128 1.597,15.294 2.73,15.294 L18.13,15.294 C18.489,15.294 18.897,15.128 19.236,14.795 C19.576,14.463 19.745,14.64 19.745,13.598 L19.745,2.66 C19.745,1.599 19.576,1.200 19.236,0.868 ZM18.359,13.598 C18.359,13.690 18.325,13.769 18.256,13.836 C18.187,13.903 18.106,13.937 18.13,13.937 L2.73,13.937 C1.979,13.937 1.898,13.903 1.829,13.836 C1.761,13.769 1.726,13.690 1.726,13.598 L1.726,5.458 C1.957,5.712 2.206,5.945 2.474,6.157 C4.408,7.613 5.946,8.807 7.87,9.740 C7.455,10.44 7.754,10.280 7.986,10.450 C8.216,10.619 8.529,10.791 8.922,10.964 C9.315,11.137 9.685,11.223 10.32,11.223 L10.43,11.223 L10.54,11.223 C10.400,11.223 10.770,11.137 11.163,10.964 C11.557,10.791 11.869,10.619 12.100,10.450 C12.331,10.280 12.631,10.44 12.999,9.740 C14.140,8.807 15.677,7.613 17.612,6.157 C17.879,5.945 18.128,5.712 18.359,5.458 L18.359,13.598 L18.359,13.598 ZM18.359,2.341 L18.359,2.458 C18.359,2.875 18.191,3.339 17.856,3.851 C17.520,4.364 17.157,4.772 16.768,5.76 C15.374,6.150 13.927,7.270 12.425,8.436 C12.382,8.471 12.255,8.575 12.46,8.748 C11.837,8.921 11.671,9.54 11.548,9.146 C11.425,9.238 11.265,9.349 11.66,9.480 C10.868,9.610 10.685,9.708 10.519,9.771 C10.353,9.835 10.198,9.866 10.54,9.866 L10.43,9.866 L10.32,9.866 C9.888,9.866 9.733,9.835 9.566,9.771 C9.400,9.708 9.218,9.610 9.20,9.480 C8.821,9.349 8.660,9.238 8.538,9.146 C8.415,9.54 8.249,8.921 8.40,8.748 C7.830,8.575 7.704,8.471 7.661,8.436 C6.159,7.270 4.712,6.150 3.319,5.76 C2.257,4.256 1.727,3.253 1.727,2.65 C1.727,1.974 1.761,1.894 1.830,1.827 C1.898,1.760 1.979,1.726 2.73,1.726 L18.13,1.726 C18.70,1.758 18.121,1.767 18.164,1.753 C18.208,1.739 18.240,1.765 18.262,1.832 C18.283,1.900 18.303,1.931 18.321,1.928 C18.339,1.924 18.350,1.968 18.354,2.60 C18.357,2.152 18.359,2.198 18.359,2.198 L18.359,2.341 L18.359,2.341 Z"/>
</svg>